<?xml version="1.0" encoding="UTF-8"?><svg xmlns="http://www.w3.org/2000/svg" xmlns:xlink="http://www.w3.org/1999/xlink" fill-opacity="1" color-rendering="auto" color-interpolation="auto" text-rendering="auto" stroke="black" stroke-linecap="square" width="75" stroke-miterlimit="10" shape-rendering="auto" stroke-opacity="1" fill="black" stroke-dasharray="none" font-weight="normal" stroke-width="1" height="75" font-family="'Dialog'" font-style="normal" stroke-linejoin="miter" font-size="12px" stroke-dashoffset="0" image-rendering="auto">
  <!--Generated by ySVG 2.5-->
  <defs id="genericDefs"/>
  <g>
    <defs id="defs1">
      <clipPath clipPathUnits="userSpaceOnUse" id="clipPath1">
        <path d="M0 0 L75 0 L75 75 L0 75 L0 0 Z"/>
      </clipPath>
      <clipPath clipPathUnits="userSpaceOnUse" id="clipPath2">
        <path d="M462 248 L537 248 L537 323 L462 323 L462 248 Z"/>
      </clipPath>
    </defs>
    <g fill="white" text-rendering="geometricPrecision" shape-rendering="geometricPrecision" transform="translate(-462,-248)" stroke="white">
      <rect x="462" width="75" height="75" y="248" clip-path="url(#clipPath2)" stroke="none"/>
    </g>
    <g fill="red" text-rendering="geometricPrecision" shape-rendering="geometricPrecision" transform="matrix(1,0,0,1,-462,-248)" stroke="red">
      <path d="M477.8642 276.3745 L490.6783 263.4872 L508.8002 263.4872 L521.6142 276.3745 L521.6142 294.5999 L508.8002 307.4872 L490.6783 307.4872 L477.8642 294.5999 Z" fill-rule="evenodd" clip-path="url(#clipPath2)" stroke="none"/>
    </g>
    <g text-rendering="geometricPrecision" stroke-miterlimit="1.45" shape-rendering="geometricPrecision" transform="matrix(1,0,0,1,-462,-248)" stroke-linecap="butt">
      <path fill="none" d="M477.8642 276.3745 L490.6783 263.4872 L508.8002 263.4872 L521.6142 276.3745 L521.6142 294.5999 L508.8002 307.4872 L490.6783 307.4872 L477.8642 294.5999 Z" fill-rule="evenodd" clip-path="url(#clipPath2)"/>
    </g>
  </g>
</svg>